#!OML:ASF H:\GeneralSubjects\Female5\Project 1\Capture day 1\Session 1\Female5.ASF
:FULLY-SPECIFIED
:DEGREES
154
root -26.2948 16.3489 4.69305 -34.7116 83.1192 -46.9303
lowerback 6.60036 1.63808 3.31718
upperback -9.62314 3.16407 1.58603
thorax -14.2148 1.37368 -0.719321
lowerneck -15.1529 0.480276 2.68687
upperneck 42.3062 3.1329 -2.40736
head 18.6246 2.08262 -0.775991
rclavicle -1.43436e-014 -1.19271e-014
rhumerus -38.5315 31.8202 -86.4588
rradius 48.2578
rwrist -9.32636
rhand -21.3954 -20.4004
rfingers 7.12502
rthumb 4.9926 -50.3216
lclavicle -1.43436e-014 -1.19271e-014
lhumerus -31.2108 -12.1001 82.8656
lradius 35.9448
lwrist -13.313
lhand -23.1533 32.0132
lfingers 7.12502
lthumb 3.29501 61.9675
rfemur -8.09913 21.4913 33.6419
rtibia 1.43508
rfoot -15.3899 -26.0498
rtoes -38.1002
lfemur -5.555 -26.5133 -23.6586
ltibia -2.91987
lfoot -30.4829 6.8712
ltoes -33.0693
155
root -26.289 16.3586 4.68774 -32.4334 83.0782 -44.7458
lowerback 6.6723 1.69361 3.26294
upperback -9.59746 3.23018 1.5697
thorax -14.2289 1.40792 -0.721527
lowerneck -15.1734 0.431029 2.6533
upperneck 42.1277 3.13228 -2.63984
head 18.526 2.03496 -0.882908
rclavicle -2.17918e-014 4.96962e-016
rhumerus -37.3722 31.9444 -85.7498
rradius 48.6635
rwrist -9.51378
rhand -21.8021 -20.3729
rfingers 7.12502
rthumb 4.59989 -50.3029
lclavicle -2.17918e-014 4.96962e-016
lhumerus -30.1129 -11.9128 82.0278
lradius 36.5488
lwrist -12.6376
lhand -23.6142 33.0625
lfingers 7.12502
lthumb 2.84992 63.0232
rfemur -9.0091 21.4021 33.2289
rtibia 2.20245
rfoot -17.5469 -25.2706
rtoes -37.2822
lfemur -5.20131 -26.6582 -23.8559
ltibia -3.63266
lfoot -30.6654 7.52823
ltoes -34.2123
156
root -26.2796 16.3696 4.68581 -29.8579 83.1124 -42.2866
lowerback 6.72023 1.72053 3.1633
upperback -9.59018 3.24798 1.52716
thorax -14.2517 1.42232 -0.717979
lowerneck -15.1823 0.388985 2.57903
upperneck 41.9709 3.13364 -2.80806
head 18.4358 1.9916 -0.950667
rclavicle -1.3244e-014 -4.77083e-015
rhumerus -36.2083 32.0239 -85.0847
rradius 49.0889
rwrist -9.75279
rhand -22.3097 -20.1545
rfingers 7.12502
rthumb 4.10968 -50.0946
lclavicle -1.3244e-014 -4.77083e-015
lhumerus -29.0045 -11.7303 81.2406
lradius 37.1955
lwrist -11.9225
lhand -24.0901 34.1466
lfingers 7.12502
lthumb 2.39038 64.113
rfemur -9.58241 21.9399 32.7199
rtibia 2.28887
rfoot -19.3693 -24.8053
rtoes -36.1182
lfemur -4.8082 -26.9739 -24.155
ltibia -4.40036
lfoot -30.9907 8.14978
ltoes -35.1487
157
root -26.2666 16.3805 4.6871 -27.5013 83.2267 -40.0775
lowerback 6.7377 1.7086 3.07585
upperback -9.6089 3.21376 1.46931
thorax -14.2863 1.41019 -0.727823
lowerneck -15.1872 0.348904 2.44134
upperneck 41.8481 3.11949 -2.86914
head 18.3607 1.94819 -0.958545
rclavicle 7.29291e-015 2.60408e-014
rhumerus -35.0763 32.0772 -84.4837
rradius 49.5167
rwrist -10.0491
rhand -22.8106 -19.8433
rfingers 7.12502
rthumb 3.62598 -49.7922
lclavicle 7.29291e-015 2.60408e-014
lhumerus -27.9065 -11.5785 80.5373
lradius 37.8434
lwrist -11.1454
lhand -24.6769 35.1264
lfingers 7.12502
lthumb 1.82359 65.0984
rfemur -9.84975 22.8875 32.1766
rtibia 1.85799
rfoot -20.5629 -24.644
rtoes -34.8379
lfemur -4.45033 -27.4602 -24.4844
ltibia -5.12558
lfoot -31.4302 8.74967
ltoes -35.9932
158
root -26.2496 16.3897 4.69059 -25.7372 83.4262 -38.4989
lowerback 6.70732 1.65607 3.04867
upperback -9.65256 3.1322 1.40333
thorax -14.3186 1.3697 -0.77008
lowerneck -15.1994 0.304013 2.24103
upperneck 41.7596 3.07423 -2.81448
head 18.3029 1.89957 -0.906104
rclavicle 9.67833e-015 1.17283e-014
rhumerus -33.9974 32.1018 -83.947
rradius 49.9296
rwrist -10.3999
rhand -23.2298 -19.5381
rfingers 7.12502
rthumb 3.22121 -49.4935
lclavicle 9.67833e-015 1.17283e-014
lhumerus -26.8473 -11.5148 79.9483
lradius 38.5112
lwrist -10.2484
lhand -25.3886 35.9537
lfingers 7.12502
lthumb 1.13623 65.9304
rfemur -9.85701 24.0043 31.6557
rtibia 1.09869
rfoot -20.7688 -24.8931
rtoes -34.1601
lfemur -4.18472 -28.1374 -24.7928
ltibia -5.72805
lfoot -31.9611 9.37627
ltoes -36.8438
159
root -26.228 16.3954 4.69464 -24.6206 83.7232 -37.6028
lowerback 6.62046 1.56959 3.08323
upperback -9.71586 3.01173 1.3286
thorax -14.3368 1.3048 -0.84753
lowerneck -15.2218 0.248503 1.99924
upperneck 41.6986 2.99059 -2.66766
head 18.2599 1.84275 -0.810011
rclavicle -9.23106e-015 2.34566e-014
rhumerus -32.9953 32.0844 -83.4635
rradius 50.3191
rwrist -10.787
rhand -23.5332 -19.3041
rfingers 7.12502
rthumb 2.92814 -49.2637
lclavicle -9.23106e-015 2.34566e-014
lhumerus -25.845 -11.5829 79.4978
lradius 39.232
lwrist -9.19619
lhand -26.2172 36.6149
lfingers 7.12502
lthumb 0.335969 66.5943
rfemur -9.62725 25.1399 31.1709
rtibia 0.115555
rfoot -20.415 -25.4529
rtoes -33.3386
lfemur -4.04976 -28.9811 -25.0787
ltibia -6.14458
lfoot -32.5218 10.0407
ltoes -37.6068
